<svg xmlns="http://www.w3.org/2000/svg" width="48" height="48" fill="none" viewBox="0 0 48 48">
  <g class="uk 2">
    <path fill="#071B65" d="M40.5 6h-33a6 6 0 0 0-6 6v24a6 6 0 0 0 6 6h33a6 6 0 0 0 6-6V12a6 6 0 0 0-6-6Z" class="Vector"/>
    <path fill="#fff" d="M7.651 6H7.5c-2.972 0-5.423 2.166-5.9 5.001L40.348 42h.152c2.971 0 5.422-2.166 5.9-5.001L7.65 6Z" class="Vector"/>
    <path fill="#B92932" d="M33.375 28.5h-3.75l14.901 11.92a5.994 5.994 0 0 0 1.393-1.885L33.376 28.5ZM2.08 9.464 14.626 19.5h3.75L3.474 7.58a5.988 5.988 0 0 0-1.393 1.884Z" class="Vector"/>
    <path fill="#fff" d="M7.5 42h.151L46.4 11.001C45.923 8.165 43.472 6 40.5 6h-.151L1.6 36.999C2.077 39.836 4.528 42 7.5 42Z" class="Vector"/>
    <path fill="#fff" d="M28.5 6h-9v36h9V6Z" class="Vector"/>
    <path fill="#fff" d="M46.5 19.5h-45v9h45v-9Z" class="Vector"/>
    <path fill="#B92932" d="M27 6h-6v36h6V6Z" class="Vector"/>
    <path fill="#B92932" d="M46.5 27v-6h-45v6h45ZM42.333 6.315 28.5 17.379V19.5h1.125L44.539 7.59a5.97 5.97 0 0 0-2.206-1.275ZM3.492 40.435a5.97 5.97 0 0 0 2.17 1.248L19.5 30.614v-2.111h-1.125L3.492 40.434Z" class="Vector"/>
    <path fill="#000" d="M40.5 6h-33a6 6 0 0 0-6 6v24a6 6 0 0 0 6 6h33a6 6 0 0 0 6-6V12a6 6 0 0 0-6-6ZM45 36c0 2.481-2.019 4.5-4.5 4.5h-33A4.505 4.505 0 0 1 3 36V12c0-2.481 2.019-4.5 4.5-4.5h33c2.481 0 4.5 2.019 4.5 4.5v24Z" class="Vector" opacity=".15"/>
    <path fill="#fff" d="M40.5 7.5h-33A4.5 4.5 0 0 0 3 12v1.5A4.5 4.5 0 0 1 7.5 9h33a4.5 4.5 0 0 1 4.5 4.5V12a4.5 4.5 0 0 0-4.5-4.5Z" class="Vector" opacity=".2"/>
  </g>
</svg>
